<mxfile host="app.diagrams.net" modified="2023-10-05T15:30:05.946Z" agent="Mozilla/5.0 (Macintosh; Intel Mac OS X 10_15_7) AppleWebKit/605.1.15 (KHTML, like Gecko) Version/16.6 Safari/605.1.15" version="22.0.2" etag="IKFca5ISUJeKoFQQ-rLr" type="github">
  <diagram name="Страница — 1" id="WjQ5FUbMzbYYBcAQHjxD">
    <mxGraphModel>
      <root>
        <mxCell id="0" />
        <mxCell id="1" parent="0" />
      </root>
    </mxGraphModel>
  </diagram>
</mxfile>
